<mxfile host="app.diagrams.net" agent="Mozilla/5.0 (Windows NT 10.0; Win64; x64) AppleWebKit/537.36 (KHTML, like Gecko) Chrome/135.0.0.0 Safari/537.36" version="26.2.14">
  <diagram name="Página-1" id="WkPjr6Rg9MQp5OxfBgcm">
    <mxGraphModel dx="834" dy="459" grid="1" gridSize="10" guides="1" tooltips="1" connect="1" arrows="1" fold="1" page="1" pageScale="1" pageWidth="827" pageHeight="1169" math="0" shadow="0">
      <root>
        <mxCell id="0" />
        <mxCell id="1" parent="0" />
        <mxCell id="acpnoQNmcsYS-xNyhajR-1" value="" style="rounded=0;whiteSpace=wrap;html=1;" vertex="1" parent="1">
          <mxGeometry x="10" y="10" width="120" height="60" as="geometry" />
        </mxCell>
        <mxCell id="acpnoQNmcsYS-xNyhajR-27" style="edgeStyle=orthogonalEdgeStyle;rounded=0;orthogonalLoop=1;jettySize=auto;html=1;strokeColor=none;" edge="1" parent="1" source="acpnoQNmcsYS-xNyhajR-3" target="acpnoQNmcsYS-xNyhajR-17">
          <mxGeometry relative="1" as="geometry" />
        </mxCell>
        <mxCell id="acpnoQNmcsYS-xNyhajR-28" style="edgeStyle=orthogonalEdgeStyle;rounded=0;orthogonalLoop=1;jettySize=auto;html=1;entryX=0;entryY=0.5;entryDx=0;entryDy=0;endArrow=none;startFill=0;shape=link;" edge="1" parent="1" source="acpnoQNmcsYS-xNyhajR-3" target="acpnoQNmcsYS-xNyhajR-17">
          <mxGeometry relative="1" as="geometry" />
        </mxCell>
        <mxCell id="acpnoQNmcsYS-xNyhajR-3" value="Barco" style="rounded=0;whiteSpace=wrap;html=1;" vertex="1" parent="1">
          <mxGeometry x="10" y="10" width="120" height="60" as="geometry" />
        </mxCell>
        <mxCell id="acpnoQNmcsYS-xNyhajR-13" value="(Id Barco(PK),&lt;div&gt;Nome_barco,&lt;/div&gt;&lt;div&gt;Data_compra,&lt;/div&gt;&lt;div&gt;Capacidade,&lt;/div&gt;&lt;div&gt;...)&lt;/div&gt;" style="text;html=1;align=center;verticalAlign=middle;whiteSpace=wrap;rounded=0;" vertex="1" parent="1">
          <mxGeometry x="10" y="75" width="120" height="80" as="geometry" />
        </mxCell>
        <mxCell id="acpnoQNmcsYS-xNyhajR-35" style="edgeStyle=orthogonalEdgeStyle;rounded=0;orthogonalLoop=1;jettySize=auto;html=1;entryX=0;entryY=0.5;entryDx=0;entryDy=0;endArrow=none;startFill=0;shape=link;" edge="1" parent="1" source="acpnoQNmcsYS-xNyhajR-17" target="acpnoQNmcsYS-xNyhajR-31">
          <mxGeometry relative="1" as="geometry" />
        </mxCell>
        <mxCell id="acpnoQNmcsYS-xNyhajR-17" value="A" style="rhombus;whiteSpace=wrap;html=1;" vertex="1" parent="1">
          <mxGeometry x="180" width="80" height="80" as="geometry" />
        </mxCell>
        <mxCell id="acpnoQNmcsYS-xNyhajR-21" value="N" style="text;html=1;align=center;verticalAlign=middle;whiteSpace=wrap;rounded=0;" vertex="1" parent="1">
          <mxGeometry x="130" y="50" width="20" height="20" as="geometry" />
        </mxCell>
        <mxCell id="acpnoQNmcsYS-xNyhajR-31" value="Marinhero" style="rounded=0;whiteSpace=wrap;html=1;" vertex="1" parent="1">
          <mxGeometry x="320" y="10" width="120" height="60" as="geometry" />
        </mxCell>
        <mxCell id="acpnoQNmcsYS-xNyhajR-32" value="M" style="text;html=1;align=center;verticalAlign=middle;whiteSpace=wrap;rounded=0;" vertex="1" parent="1">
          <mxGeometry x="280" y="45" width="60" height="30" as="geometry" />
        </mxCell>
        <mxCell id="acpnoQNmcsYS-xNyhajR-33" value="(Id_Marinheiro(PK),&lt;div&gt;Nome_Marinheiro,&lt;/div&gt;&lt;div&gt;...)&lt;/div&gt;&lt;div&gt;&lt;br&gt;&lt;/div&gt;&lt;div&gt;&lt;br&gt;&lt;/div&gt;" style="text;html=1;align=center;verticalAlign=middle;whiteSpace=wrap;rounded=0;" vertex="1" parent="1">
          <mxGeometry x="320" y="70" width="120" height="80" as="geometry" />
        </mxCell>
        <mxCell id="acpnoQNmcsYS-xNyhajR-36" value="Capitão" style="rounded=0;whiteSpace=wrap;html=1;" vertex="1" parent="1">
          <mxGeometry x="160" y="120" width="120" height="60" as="geometry" />
        </mxCell>
        <mxCell id="acpnoQNmcsYS-xNyhajR-40" style="edgeStyle=orthogonalEdgeStyle;rounded=0;orthogonalLoop=1;jettySize=auto;html=1;entryX=0.111;entryY=-0.005;entryDx=0;entryDy=0;entryPerimeter=0;shape=link;" edge="1" parent="1" source="acpnoQNmcsYS-xNyhajR-3" target="acpnoQNmcsYS-xNyhajR-36">
          <mxGeometry relative="1" as="geometry" />
        </mxCell>
      </root>
    </mxGraphModel>
  </diagram>
</mxfile>
